<svg width="201" height="66" viewBox="0 0 201 66" fill="none" xmlns="http://www.w3.org/2000/svg">
<path fill-rule="evenodd" clip-rule="evenodd" d="M162.216 9.59422C162.216 7.13787 163.206 5.08609 165.157 3.46779C166.817 2.08067 169.147 1.12703 172.176 0.577965H172.263C172.729 0.49127 173.166 0.433474 173.516 0.404576C174.011 0.346779 174.418 0.346779 174.739 0.346779H178.641V40.0819C178.641 43.2896 178.204 46.2661 177.331 48.9536C176.894 50.283 176.37 51.5256 175.729 52.7104C175.088 53.8952 174.36 54.9645 173.545 55.9181C172.788 56.814 172.001 57.6231 171.186 58.3745C170.37 59.1258 169.497 59.8194 168.594 60.484C167.633 61.1776 166.643 61.7845 165.652 62.2757C164.604 62.7959 163.556 63.2583 162.449 63.605C161.488 63.9229 160.527 64.183 159.595 64.4142C158.692 64.6454 157.789 64.8188 156.857 64.9633C155.052 65.2522 153.362 65.3967 151.819 65.3967C151.178 65.3967 150.479 65.3967 149.722 65.31C149.023 65.2523 148.295 65.1945 147.567 65.1078C146.868 65.0211 146.082 64.8766 145.208 64.7032C144.363 64.5298 143.519 64.3275 142.732 64.0963C141.83 63.8362 140.956 63.5473 140.111 63.2005C139.267 62.8537 138.422 62.478 137.607 62.0734C135.947 61.2065 134.345 60.1084 132.801 58.7501C132.044 58.0855 131.316 57.3341 130.617 56.5539C129.918 55.7447 129.278 54.9067 128.753 54.0975C128.2 53.2306 127.705 52.3058 127.239 51.2944C127.734 50.5719 128.2 49.8495 128.666 49.0981C130.122 46.6129 131.229 44.012 131.957 41.2667C132.685 38.5214 133.064 35.6893 133.064 32.7706C133.064 29.8519 132.685 27.0199 131.957 24.2745C131.229 21.5292 130.122 18.8995 128.666 16.4142C127.588 14.5936 126.365 12.8886 125.026 11.3281V0.346779H129.161C129.365 0.346779 129.627 0.346779 129.947 0.404576L130.501 0.49127C131.404 0.635762 131.345 0.606863 131.549 0.66466C131.928 0.722456 132.481 0.866948 133.18 1.06924C133.821 1.27152 134.432 1.47381 134.957 1.705C135.335 1.87839 135.656 2.02288 135.918 2.19627C136.209 2.36966 136.5 2.57194 136.791 2.80313C137.17 3.06321 137.432 3.2944 137.578 3.43889C137.869 3.69898 138.102 3.93016 138.306 4.13245C138.597 4.45033 138.888 4.82601 139.121 5.23058C139.325 5.60626 139.529 5.98194 139.675 6.38651C139.82 6.79109 139.908 7.16677 139.995 7.57134C140.053 7.97592 140.111 8.38049 140.111 8.78507V38.7526C140.111 39.8218 140.17 40.8043 140.257 41.6424C140.374 42.5382 140.519 43.4052 140.694 44.1854C140.869 44.9368 141.102 45.6303 141.393 46.2661C141.626 46.8152 141.888 47.2775 142.179 47.6821C142.529 48.1445 142.878 48.6069 143.228 48.9825C143.577 49.3582 143.956 49.705 144.363 50.0518C144.713 50.3408 145.062 50.6008 145.441 50.8031C145.79 51.0054 146.169 51.1788 146.548 51.3233C147.014 51.4967 147.48 51.6412 147.946 51.7568C148.353 51.8724 148.761 51.9591 149.198 52.0168C149.606 52.0746 150.042 52.1324 150.508 52.1613C150.945 52.1902 151.382 52.2191 151.848 52.2191C152.518 52.2191 153.188 52.1902 153.799 52.1035C154.44 52.0168 154.993 51.9013 155.488 51.7568C156.508 51.4678 157.585 50.8898 158.75 50.0229C159.187 49.705 159.566 49.2715 159.973 48.7225C160.41 48.0867 160.818 47.2775 161.167 46.3528C161.546 45.3414 161.808 44.2432 161.983 43.0295C162.158 41.7869 162.274 40.3998 162.274 38.8104V9.59422H162.216Z" fill="#080F1A"/>
<path fill-rule="evenodd" clip-rule="evenodd" d="M184.67 5.83745C186.009 3.84347 188.106 2.48525 190.553 1.5894C194.047 0.317881 196.727 0.317881 200.455 0L199.61 34.1866C199.348 45.3992 195.737 47.4509 184.874 47.4509L183.272 11.2414C183.185 9.13185 183.476 7.62914 184.67 5.83745Z" fill="#080F1A"/>
<path fill-rule="evenodd" clip-rule="evenodd" d="M192.154 50.0229C196.406 50.0229 199.843 53.4329 199.843 57.652C199.843 61.8712 196.406 65.2812 192.154 65.2812C187.902 65.2812 184.466 61.8712 184.466 57.652C184.466 53.4329 187.902 50.0229 192.154 50.0229Z" fill="#080F1A"/>
<path fill-rule="evenodd" clip-rule="evenodd" d="M89.7866 43.2607C91.2428 44.6767 92.8446 45.7459 94.5919 46.4395C96.2811 47.133 98.1741 47.4798 100.184 47.4798C102.193 47.4798 104.086 47.133 105.804 46.4395C107.552 45.7459 109.154 44.6767 110.639 43.2607C112.124 41.8158 113.26 40.2264 113.988 38.4925C114.745 36.7586 115.095 34.8513 115.095 32.7706C115.095 30.6899 114.716 28.7827 113.988 27.0199C113.231 25.286 112.124 23.6677 110.639 22.2228C109.154 20.7778 107.552 19.7086 105.804 18.9862C104.115 18.2926 102.251 17.9747 100.242 17.9747C98.873 17.9747 97.5916 18.1192 96.3685 18.4371C95.1453 18.755 93.9804 19.2462 92.8446 19.882C91.7088 20.5467 90.6894 21.298 89.7575 22.1939C88.8547 23.0897 88.0684 24.1011 87.3694 25.2282C86.6704 26.3841 86.1754 27.5689 85.8259 28.7827C85.5055 29.9964 85.3308 31.3257 85.3308 32.7128C85.3308 34.8224 85.7094 36.7297 86.4375 38.4925C87.1656 40.2264 88.3013 41.8158 89.7575 43.2607H89.7866Z" fill="#080F1A"/>
<path fill-rule="evenodd" clip-rule="evenodd" d="M75.2251 0.260084H82.2146L80.2634 6.87778C79.1276 7.74473 78.05 8.66948 77.0598 9.65202C75.0794 11.6171 73.3612 13.8712 71.8759 16.3853C68.9345 21.4136 67.4783 26.8465 67.4783 32.7417C67.4783 35.6604 67.8569 38.4925 68.585 41.2378C68.818 42.0759 69.0801 42.885 69.3713 43.6942L62.9351 65.4256H57.6929C56.6736 65.4256 55.6834 65.3101 54.6641 65.05C53.7322 64.8188 52.8002 64.472 51.8392 63.9807C49.5384 62.8248 48.1114 61.1487 47.5581 58.9813L40.5976 31.7881L30.5793 65.4545H25.3371C24.3178 65.4545 23.2985 65.339 22.2792 65.0789C21.289 64.8477 20.3279 64.472 19.396 64.0096C17.0953 62.8537 15.6682 61.1776 15.0858 59.0102L0 0.260084H7.10605C9.14466 0.260084 11.0959 0.780253 13.018 1.79169C14.0956 2.36966 14.9693 3.06322 15.6682 3.90126C16.3963 4.76821 16.8914 5.72185 17.1826 6.79109L23.5897 31.6725L30.7832 7.36905C30.9579 6.70439 31.2782 6.06863 31.7151 5.46177C32.0937 4.9127 32.5597 4.39253 33.113 3.90126C33.5499 3.49669 34.0741 3.12101 34.6565 2.74533C35.239 2.36966 35.8215 2.05178 36.3748 1.82059C37.3941 1.38712 38.4134 1.04034 39.4036 0.751355C40.5976 0.433474 41.6752 0.260084 42.6071 0.260084H47.9658L55.9747 31.6436L63.1972 7.25346C63.5758 6.09753 64.2456 5.0283 65.2067 4.13245C66.0513 3.3233 67.0997 2.60084 68.4102 1.96508C69.546 1.41601 70.6818 1.01144 71.7594 0.722456C72.9826 0.404576 74.1475 0.260084 75.2542 0.260084H75.2251Z" fill="#080F1A"/>
</svg>
